<svg xmlns="http://www.w3.org/2000/svg" aria-hidden="true" style="position:absolute;width:0;height:0" overflow="hidden"><defs><symbol id="prefix__icon-arrow_back" viewBox="0 0 24 24"><path fill="currentColor" stroke-width="1.333" d="M12.008 4.687c.086 0 .159.026.241.108.082.086.108.163.108.249s-.027.161-.108.243l-6.361 6.361h13.41a.337.337 0 01.358.352c0 .12-.035.192-.097.253a.34.34 0 01-.261.099H5.888l6.356 6.354a.331.331 0 01.111.251v.001a.305.305 0 01-.056.185l-.052.062a.309.309 0 01-.242.106.344.344 0 01-.256-.113L4.801 12.25a.416.416 0 01-.091-.125v-.001c-.015-.036-.023-.076-.023-.124s.009-.087.023-.122v-.001a.41.41 0 01.091-.125l6.95-6.95a.348.348 0 01.257-.114z"/></symbol><symbol id="prefix__icon-arrow_forward" viewBox="0 0 24 24"><path fill="currentColor" stroke-width="1.333" d="M11.995 4.689a.321.321 0 01.194.061l.062.053 6.948 6.948a.416.416 0 01.091.125v.001c.015.036.024.076.024.124s-.009.087-.024.122v.001a.398.398 0 01-.091.125l-6.954 6.948c-.091.09-.17.116-.253.116-.081 0-.153-.025-.236-.11l-.005-.005-.052-.06c-.042-.06-.057-.118-.057-.183s.015-.122.057-.182l.052-.06 6.361-6.361H4.702c-.122 0-.194-.035-.255-.096h-.001c-.061-.061-.096-.134-.096-.256s.035-.195.096-.256h.001a.33.33 0 01.255-.096h13.41l-6.355-6.355a.345.345 0 01-.105-.185l-.006-.067a.314.314 0 01.105-.244l.001-.001a.31.31 0 01.243-.106z"/></symbol><symbol id="prefix__icon-bookmark" viewBox="0 0 24 24"><path fill="currentColor" d="M12 18.168l-4.769 2.04c-.568.245-1.106.199-1.616-.138s-.765-.813-.765-1.428V4.43c0-.462.169-.862.507-1.201s.736-.508 1.197-.508h10.892c.462 0 .862.17 1.201.508s.509.739.509 1.201v14.212c0 .616-.256 1.092-.768 1.428s-1.052.383-1.619.138l-4.768-2.04zm0-1.823l5.446 2.296V4.429H6.554v14.212L12 16.345zm0-11.916z"/></symbol><symbol id="prefix__icon-chevron_left" viewBox="0 0 24 24"><path fill="currentColor" stroke-width="1.333" d="M14.037 6.648c.101 0 .178.03.256.108s.108.155.108.256-.03.178-.108.256l-4.707 4.707 4.707 4.706c.078.078.1.145.097.226a.364.364 0 01-.121.261c-.078.078-.155.109-.256.109s-.178-.031-.256-.109l-4.944-4.943a.577.577 0 01-.062-.072l-.029-.053a.348.348 0 01-.017-.191l.018-.058a.41.41 0 01.091-.125l4.97-4.969a.331.331 0 01.255-.108z"/></symbol><symbol id="prefix__icon-chevron_right" viewBox="0 0 24 24"><path fill="currentColor" stroke-width="1.333" d="M9.387 6.673c.101 0 .178.03.256.108l4.944 4.944a.41.41 0 01.091.124v.001c.015.036.024.075.024.124s-.009.088-.024.124v.001a.41.41 0 01-.091.124l-4.969 4.969c-.078.078-.145.1-.226.097a.364.364 0 01-.261-.121c-.078-.078-.109-.155-.109-.256s.031-.178.109-.256l4.682-4.682-4.707-4.707c-.078-.078-.1-.144-.097-.225a.367.367 0 01.122-.262.331.331 0 01.255-.108z"/></symbol><symbol id="prefix__icon-close" viewBox="0 0 24 24"><path fill="currentColor" stroke-width="1.333" d="M17.6 5.925c.164 0 .266.049.347.129s.129.182.129.346a.455.455 0 01-.129.347l-5.254 5.254 5.254 5.253c.08.08.129.183.129.347s-.048.266-.129.347-.182.129-.347.129a.451.451 0 01-.347-.129L12 12.694l-5.254 5.254c-.08.08-.182.129-.347.129s-.265-.049-.346-.129c-.08-.08-.129-.182-.129-.347s.049-.266.129-.347l5.253-5.253-5.253-5.254c-.08-.08-.129-.182-.129-.347s.049-.265.129-.346.182-.129.346-.129c.164 0 .266.049.347.129L12 11.307l5.253-5.253a.453.453 0 01.347-.129z"/></symbol><symbol id="prefix__icon-communication" viewBox="0 0 24 24"><path fill="currentColor" d="M.862 15.953v-.426c0-.932.463-1.544 1.389-1.837s1.747-.439 2.462-.439c.715 0 1.536.146 2.462.438s1.39.905 1.39 1.839v.426H.862zm3.851-4.042c-.544 0-1.009-.194-1.395-.582s-.58-.855-.58-1.4.194-1.011.581-1.398c.387-.387.853-.58 1.397-.58s1.009.194 1.395.582c.387.388.58.854.58 1.398s-.194 1.01-.581 1.398a1.903 1.903 0 01-1.397.582zm5.22 1.499c-.191 0-.349-.06-.474-.18s-.187-.274-.187-.462c0-.094.062-.256.187-.487.129-.183.231-.375.307-.575s.113-.408.113-.626c0-.217-.038-.432-.113-.644s-.178-.399-.309-.562c-.054-.073-.098-.149-.133-.227s-.052-.162-.052-.25a.637.637 0 01.661-.658c.084 0 .171.014.26.041s.158.074.208.141c.291.304.505.642.64 1.015s.203.754.203 1.145c0 .387-.073.776-.219 1.167s-.36.726-.642 1.005c-.067.067-.136.11-.209.129s-.153.029-.242.029zm1.904 1.902c-.195 0-.353-.063-.475-.189s-.183-.284-.183-.477c0-.089.016-.171.048-.247s.076-.151.13-.222c.41-.48.713-.981.911-1.503a4.464 4.464 0 000-3.202 4.798 4.798 0 00-.912-1.498c-.054-.071-.096-.144-.129-.218s-.048-.159-.048-.252c0-.194.062-.352.187-.475s.283-.184.474-.184c.098 0 .189.023.273.068s.161.106.231.182c.521.6.911 1.237 1.169 1.91a5.75 5.75 0 010 4.146 6.403 6.403 0 01-1.168 1.911c-.066.083-.14.146-.225.188s-.178.063-.283.063zm3.597.641v-.426c0-.933.463-1.546 1.389-1.839s1.747-.438 2.462-.438c.715 0 1.536.147 2.462.439s1.389.905 1.389 1.837v.426h-7.703zm3.851-4.042c-.544 0-1.009-.194-1.395-.582s-.58-.855-.58-1.4.194-1.011.581-1.398c.387-.387.853-.58 1.397-.58s1.009.194 1.395.582c.387.388.58.854.58 1.398s-.194 1.01-.581 1.398a1.903 1.903 0 01-1.397.582z"/></symbol><symbol id="prefix__icon-edit" viewBox="0 0 24 24"><path fill="currentColor" d="M4.548 19.446h1.106l11.495-11.47-1.094-1.1L4.548 18.352v1.094zm-.846 1.704a.83.83 0 01-.852-.852v-1.921c0-.228.047-.451.14-.668s.217-.403.37-.556L17.213 3.319c.137-.141.303-.252.496-.33s.394-.119.602-.119c.191 0 .382.039.574.119s.368.187.53.324l1.297 1.279c.154.162.266.34.337.533s.106.388.106.583c0 .195-.039.393-.119.592s-.187.37-.324.512L6.859 20.64c-.157.153-.344.276-.559.37s-.437.14-.665.14H3.703zM16.605 7.42l-.55-.544 1.094 1.1-.544-.556z"/></symbol><symbol id="prefix__icon-Facebook" viewBox="0 0 24 24"><path fill="currentColor" d="M22 12.304c0-5.557-4.477-10.061-10-10.061S2 6.748 2 12.304c0 5.022 3.657 9.184 8.438 9.939v-7.031H7.899v-2.908h2.539v-2.217c0-2.522 1.493-3.914 3.777-3.914 1.094 0 2.238.197 2.238.197v2.476h-1.261c-1.242 0-1.63.776-1.63 1.571v1.887h2.773l-.443 2.908h-2.33v7.031C18.343 21.488 22 17.326 22 12.304z"/></symbol><symbol id="prefix__icon-Instagram" viewBox="0 0 24 24"><path fill="currentColor" d="M12.005 4.866c2.404 0 2.689.011 3.634.053.879.039 1.353.186 1.67.309.418.162.72.359 1.033.672.317.317.51.615.675 1.034.123.317.27.794.309 1.67.042.949.053 1.234.053 3.635s-.011 2.689-.053 3.635c-.039.879-.186 1.353-.309 1.67-.162.418-.358.72-.672 1.033-.317.317-.615.51-1.033.675-.317.123-.795.271-1.67.309-.949.042-1.234.053-3.635.053s-2.689-.011-3.635-.053c-.879-.039-1.353-.186-1.67-.309a2.788 2.788 0 01-1.034-.672 2.816 2.816 0 01-.675-1.033c-.123-.317-.271-.795-.309-1.67-.042-.949-.053-1.234-.053-3.635s.011-2.689.053-3.635c.039-.879.186-1.353.309-1.67a2.8 2.8 0 01.672-1.034c.317-.317.615-.51 1.034-.675.317-.123.794-.271 1.67-.309.945-.042 1.231-.053 3.635-.053h.001zm0-1.62c-2.443 0-2.749.011-3.709.053-.956.042-1.614.197-2.183.418a4.399 4.399 0 00-1.596 1.04 4.392 4.392 0 00-1.04 1.592c-.222.573-.376 1.227-.418 2.183-.042.963-.053 1.269-.053 3.712s.011 2.749.053 3.709c.042.956.197 1.614.418 2.183a4.399 4.399 0 001.04 1.596 4.396 4.396 0 001.592 1.037c.573.222 1.227.376 2.183.418.96.042 1.265.053 3.709.053s2.749-.011 3.709-.053c.956-.042 1.614-.197 2.183-.418.591-.228 1.093-.538 1.592-1.037s.809-1.002 1.037-1.592c.222-.573.376-1.227.418-2.183.042-.96.053-1.266.053-3.709s-.011-2.749-.053-3.709c-.042-.956-.197-1.614-.418-2.183a4.235 4.235 0 00-1.03-1.6A4.396 4.396 0 0017.9 3.719c-.573-.222-1.227-.376-2.183-.418-.963-.046-1.269-.056-3.712-.056v.001z"/><path fill="currentColor" d="M12.004 7.622a4.624 4.624 0 10.002 9.248 4.624 4.624 0 00-.002-9.248zm0 7.621a2.998 2.998 0 110-5.997 2.998 2.998 0 010 5.997zm5.884-7.804a1.079 1.079 0 11-2.158 0 1.079 1.079 0 012.158 0z"/></symbol><symbol id="prefix__icon-keyboard_arrow_down" viewBox="0 0 24 24"><path fill="currentColor" stroke-width="1.333" d="M7.087 9.023c.101 0 .178.03.256.108l4.656 4.683 4.683-4.683c.078-.078.144-.1.225-.097a.367.367 0 01.262.122c.078.078.108.155.108.256s-.031.177-.108.255l-4.919 4.919a.418.418 0 01-.125.092.345.345 0 01-.191.016l-.058-.017-.053-.03a.502.502 0 01-.071-.062L6.808 9.642a.293.293 0 01-.097-.238.381.381 0 01.122-.273.331.331 0 01.255-.108z"/></symbol><symbol id="prefix__icon-keyboard_arrow_up" viewBox="0 0 24 24"><path fill="currentColor" stroke-width="1.333" d="M12 8.704c.094 0 .17.028.25.108l4.943 4.944c.082.082.108.156.108.243s-.027.161-.108.243c-.078.078-.155.108-.256.108s-.177-.031-.255-.108l-.001-.001-4.683-4.655-4.681 4.681c-.078.078-.144.1-.225.097a.366.366 0 01-.262-.121c-.078-.078-.108-.155-.108-.256s.03-.178.108-.256l4.919-4.919a.325.325 0 01.249-.108z"/></symbol><symbol id="prefix__icon-logout" viewBox="0 0 24 24"><path fill="currentColor" d="M4.554 21.15c-.46 0-.859-.169-1.197-.507s-.507-.736-.507-1.197V4.554c0-.462.169-.862.507-1.201s.737-.508 1.197-.508h6.605c.24 0 .442.083.606.25s.246.371.246.612-.082.443-.246.604-.366.242-.606.242H4.554v14.892h6.605c.24 0 .442.082.606.247s.246.368.246.609c0 .242-.082.443-.246.605s-.366.243-.606.243H4.554zm13.338-8.298H9.816c-.24 0-.442-.082-.606-.247s-.246-.367-.246-.609.082-.443.246-.605.366-.243.606-.243h8.026l-1.923-1.923c-.17-.171-.251-.371-.243-.6s.098-.428.267-.596c.17-.172.372-.257.607-.255s.439.088.611.258l3.397 3.397c.166.171.249.371.249.598s-.083.426-.249.596l-3.372 3.372c-.167.17-.365.252-.594.245s-.433-.094-.609-.264c-.164-.17-.246-.373-.249-.609s.084-.439.258-.61l1.898-1.904z"/></symbol><symbol id="prefix__icon-menu" viewBox="0 0 24 24"><path fill="currentColor" d="M3.702 18.221a.842.842 0 01-.852-.862c0-.242.082-.443.246-.605s.366-.242.606-.242h16.595c.24 0 .444.082.609.247s.249.368.249.609a.839.839 0 01-.858.854H3.702zm0-5.369c-.24 0-.443-.082-.606-.247s-.246-.367-.246-.609.082-.443.246-.605.366-.243.606-.243h16.595c.24 0 .444.082.609.247s.249.368.249.609c0 .242-.083.443-.249.605s-.369.243-.609.243H3.702zm0-5.364a.842.842 0 01-.852-.862c0-.242.082-.443.246-.605s.366-.243.606-.243h16.595c.24 0 .444.082.609.247s.249.368.249.609a.838.838 0 01-.858.853H3.702z"/></symbol><symbol id="prefix__icon-travel_luggage_and_bags" viewBox="0 0 24 24"><path fill="currentColor" d="M4.851 19.321V7.554c0-.474.166-.878.497-1.21s.733-.499 1.206-.499h2.505V2.69c0-.243.09-.456.269-.638s.39-.273.634-.273h4.076c.244 0 .455.091.634.273s.268.395.268.638v3.155h2.505c.474 0 .878.166 1.21.499s.499.736.499 1.21v11.767c0 .473-.166.875-.499 1.206s-.736.497-1.21.497v.411a.768.768 0 01-.786.786c-.228 0-.424-.07-.588-.21s-.229-.332-.198-.576v-.411H8.124v.411a.765.765 0 01-.786.786c-.229 0-.425-.07-.588-.21s-.229-.332-.198-.576v-.411c-.473 0-.874-.166-1.206-.497s-.497-.733-.497-1.206zm5.774-13.477h2.75v-2.5h-2.75v2.5zM12 11.833c.957 0 1.902-.106 2.835-.319s1.803-.572 2.612-1.077V7.554H6.555v2.884c.809.505 1.679.863 2.612 1.076s1.877.319 2.834.319zm-.786 1.989v-.323c-.834-.05-1.643-.184-2.427-.404s-1.529-.541-2.233-.967v7.192h10.892v-7.199c-.705.425-1.449.748-2.233.967s-1.593.356-2.427.409v.323c0 .223-.075.409-.225.56s-.338.226-.566.226a.754.754 0 01-.781-.786z"/></symbol><symbol id="prefix__icon-wand_stars" viewBox="0 0 24 24"><path fill="currentColor" d="M16.386 12.722l-2.335 3.765c-.133.221-.322.306-.566.256s-.399-.194-.465-.431l-.819-3.307-7.56 7.524c-.17.174-.369.261-.597.261s-.427-.087-.597-.261c-.17-.17-.255-.369-.255-.597s.085-.427.255-.597l7.535-7.529-3.319-.819c-.237-.067-.38-.222-.428-.465s.036-.434.253-.572l3.765-2.36-.306-4.402c-.017-.254.088-.439.315-.556s.434-.092.621.075l3.378 2.841 4.095-1.642c.233-.083.435-.04.606.131s.214.373.131.606l-1.667 4.095 2.841 3.384c.167.187.196.395.087.622s-.289.332-.543.315l-4.427-.337zM3.161 5.999c-.091-.087-.137-.19-.137-.308s.046-.222.137-.314l1.222-1.222c.087-.087.19-.131.308-.131s.223.044.314.131l1.191 1.197c.091.091.137.195.137.311s-.046.22-.137.311L4.974 7.196c-.091.091-.195.137-.311.137s-.219-.046-.311-.137L3.161 5.999zm10.826 7.537l1.539-2.478 2.922.219-1.902-2.24 1.101-2.703-2.703 1.095-2.246-1.902.225 2.922-2.484 1.558 2.847.707.701 2.822zm4.039 7.302l-1.222-1.216c-.091-.091-.133-.195-.124-.311s.058-.22.149-.311l1.197-1.191c.087-.091.19-.137.308-.137s.222.046.314.137l1.222 1.216c.087.091.127.195.119.311s-.056.219-.144.311l-1.197 1.191c-.091.091-.195.137-.311.137s-.22-.046-.311-.137z"/></symbol><symbol id="prefix__icon-X" viewBox="0 0 24 24"><path fill="currentColor" d="M17.176 4.243h2.76l-6.03 6.777L21 20.243h-5.554l-4.35-5.593-4.978 5.593H3.356l6.45-7.249-6.805-8.751h5.695l3.932 5.113 4.548-5.113zm-.969 14.375h1.53L7.865 5.782H6.224l9.984 12.836z"/></symbol><symbol id="prefix__icon-Youtube" viewBox="0 0 24 24"><path fill="currentColor" d="M21.593 7.203a2.499 2.499 0 00-1.762-1.766C18.265 5.007 12 5 12 5s-6.264-.007-7.831.404a2.56 2.56 0 00-1.766 1.778c-.413 1.566-.417 4.814-.417 4.814s-.004 3.264.406 4.814c.23.857.905 1.534 1.763 1.765 1.582.43 7.83.437 7.83.437s6.265.007 7.831-.403a2.52 2.52 0 001.767-1.763c.414-1.565.417-4.812.417-4.812s.02-3.265-.407-4.831zM9.996 15.005l.005-6 5.207 3.005-5.212 2.995z"/></symbol></defs></svg>